<?xml version="1.0" standalone="no"?><!DOCTYPE svg PUBLIC "-//W3C//DTD SVG 1.1//EN" "http://www.w3.org/Graphics/SVG/1.1/DTD/svg11.dtd"><svg class="icon" height="512" viewBox="0 0 1024 1024" version="1.1" xmlns="http://www.w3.org/2000/svg"><path d="M409.014214 419.949739a116.364218 116.364218 0 0 1-18.213085-1.38133 66.892159 66.892159 0 0 1-15.348105-4.246309 35.377383 35.377383 0 0 1-18.059604-17.189877 90.553821 90.553821 0 0 1-7.674053-22.050112c-1.074367-4.655592-2.148735-9.618146-3.01846-13.608653l-0.204642-0.920886-2.071994-9.490245v-0.588344l-0.153481-0.562764c0-0.332542-0.358122-1.151108-0.588344-1.841773V347.890385l-0.588344-1.892933-0.741825-2.788239c-0.255802-0.920886-0.639504-2.558018-0.946467-3.453324l-2.558017-8.287977-7.188029-4.732332a1.918513 1.918513 0 0 1-0.895306-1.40691v-0.588344a11.71572 11.71572 0 0 1-0.230222-2.199895c0-4.860233 0.281382-9.720467 0.434863-14.5807v-3.811446a2.558018 2.558018 0 0 1 1.944093-2.353376l1.176688-0.306962a43.486298 43.486298 0 0 1 5.320677-1.227849c9.848368-1.330169 20.46414-2.762659 31.028753-4.041667a331.519073 331.519073 0 0 1 39.39347-2.020834h2.762659a283.070221 283.070221 0 0 1 51.544053 4.809073 216.791986 216.791986 0 0 1 27.72891 7.674052 121.147711 121.147711 0 0 0 15.348105 4.118409 41.925907 41.925907 0 0 0 7.418251 0.741825l-20.41298 52.49052a138.695711 138.695711 0 0 1-6.676426 14.862081 88.609727 88.609727 0 0 1-20.46414 25.759237 50.930129 50.930129 0 0 1-19.03165 9.797207 131.737903 131.737903 0 0 1-28.598636 5.116035c-3.555644 0.255802-7.060128 0.383703-10.411132 0.383703z m-21.078065-9.873948c2.225475 0.562764 4.297469 1.023207 6.395044 1.35575a114.548025 114.548025 0 0 0 16.729435 1.253428 117.668807 117.668807 0 0 0 29.800904-3.939347 44.739727 44.739727 0 0 0 20.182759-10.718093 62.69701 62.69701 0 0 0 10.794834-14.196998 109.483151 109.483151 0 0 0 12.176163-30.210187 66.815418 66.815418 0 0 0 1.841773-21.026904l-1.099948-12.790088-11.459918-5.985761a50.674327 50.674327 0 0 0-13.327272-4.297469l-1.176688-0.281382a175.505583 175.505583 0 0 0-38.370263-3.939347h-0.792985l-3.939347 0.230222a382.679423 382.679423 0 0 0-13.199371 0.818565 148.902201 148.902201 0 0 0-25.580175 4.220729l-13.762134 3.709126-3.274263 13.915615a54.818316 54.818316 0 0 0-0.946466 6.088082c0 0.613924-0.153481 1.202268-0.204642 1.790612a72.596538 72.596538 0 0 0-0.230221 15.962029 211.036447 211.036447 0 0 0 4.220729 27.345208 58.834403 58.834403 0 0 0 8.057755 19.389773 26.501062 26.501062 0 0 0 6.497364 6.855487l6.036922 4.45095h4.630011z m234.77485 9.362344a144.246609 144.246609 0 0 1-27.856811-2.558017 77.738153 77.738153 0 0 1-22.664035-7.929854 61.21336 61.21336 0 0 1-23.457021-23.431441 182.565712 182.565712 0 0 1-10.820414-21.84547l-21.666409-52.081237a58.118158 58.118158 0 0 0 16.499213-2.94172c2.839399-0.895306 5.627639-1.892933 8.313557-2.8394s5.116035-1.790612 7.674053-2.558017a172.870825 172.870825 0 0 1 32.435662-6.829907 295.527766 295.527766 0 0 1 37.372636-2.251055c5.371837 0 11.025056 0 16.755015 0.383702h0.844146c8.927481 0.409283 18.161925 0.818566 27.294047 1.45807 11.357598 0.792985 22.561715 2.558018 35.01926 4.450951 0.665085 0 1.330169 0.281382 1.969674 0.434863h0.434863a2.071994 2.071994 0 0 1 1.790612 2.225475c0 0.767405 0 1.585971 0.179061 2.378956v0.537184c0.153481 1.713872 0.255802 3.299843 0.306962 5.116035v9.208863l-3.478904-6.343883-4.962554 17.189878-2.353376 8.185656-8.492618 29.545102 1.48365-0.818565a167.524568 167.524568 0 0 1-7.213609 23.022157 51.646374 51.646374 0 0 1-7.23919 12.790088 34.251855 34.251855 0 0 1-18.315405 11.792461 89.146911 89.146911 0 0 1-21.615249 3.351003c-2.788239 0-5.576478 0.179061-8.262396 0.179061z m-10.999475-114.599185c-3.478904 0-7.674053 0.306962-12.022683 0.562764a171.694137 171.694137 0 0 0-22.178012 3.044041 118.589693 118.589693 0 0 0-15.885289 4.092828l-14.5807 5.116035-1.176688 15.348105c0 0.869726 0 1.790612-0.153481 2.711498a73.338363 73.338363 0 0 0 2.558018 18.82701 88.839949 88.839949 0 0 0 17.164297 36.400589 43.946741 43.946741 0 0 0 25.580176 16.192251 148.978941 148.978941 0 0 0 31.207814 3.555644h1.074367a83.826235 83.826235 0 0 0 21.461767-2.558017 32.640304 32.640304 0 0 0 15.092304-7.827534 35.351802 35.351802 0 0 0 8.134495-13.09705 113.448078 113.448078 0 0 0 7.034549-36.861032v-0.767405c0-4.37421 0-8.69726-0.230222-12.790088v-2.046414c0-1.560391-0.153481-2.86498-0.281382-3.990508l-0.358122-3.274262-1.253429-3.044041-0.460443-1.048787-4.476531-10.23207-10.692513-2.992881a180.416977 180.416977 0 0 0-40.928281-5.474157h-4.706752z m107.257675 314.431515L572.804077 886.353076l-21.666409-63.617896 40.007395-80.32175-80.065949-80.296171-80.091529 80.296171 40.058554 80.32175-25.810397 65.127127-142.097874-268.591842S0.370913 780.067448 0.370913 939.227299c0 43.972321 18.059604 84.59364 62.262146 84.59364h898.810622c43.921161 0 62.441208-40.263196 62.441208-83.979716 0-149.464965-304.91569-320.570758-304.91569-320.570758z m55.50898-328.961055l-0.179061-12.559866-10.513452-7.060128c-1.279009-0.869726-2.558018-1.662711-3.785866-2.558018-21.487347-185.20047-20.029277-294.478979-235.337613-262.145637-75.538258 11.306438-157.983163-12.048263-204.922785 22.126852-59.039045 55.38108-63.208613 138.491069-47.169843 236.028278a101.681197 101.681197 0 0 0-10.641353 6.446204l-10.513452 7.060128-0.204642 12.559867a204.360021 204.360021 0 0 0 12.329645 80.884514 81.293797 81.293797 0 0 0 35.556443 41.874747 341.162799 341.162799 0 0 0 79.477605 145.807 232.549374 232.549374 0 0 0 131.047239 67.17354l4.47653 0.716245 4.502111-0.920886a248.306762 248.306762 0 0 0 134.935425-71.010567 337.172291 337.172291 0 0 0 75.052235-142.814119 82.137943 82.137943 0 0 0 34.226274-42.079389 206.227374 206.227374 0 0 0 11.792461-79.631085z m-57.094951 61.392421a32.307761 32.307761 0 0 1-17.57358 20.054858l-12.227324 4.271889-3.325423 12.406385a302.434413 302.434413 0 0 1-66.252654 132.837851 200.113712 200.113712 0 0 1-104.878719 55.892683 183.358697 183.358697 0 0 1-99.762684-52.260299 304.097125 304.097125 0 0 1-70.498964-135.933051l-3.530064-12.969149-12.790087-3.990508a30.849691 30.849691 0 0 1-17.906123-19.619994 125.342859 125.342859 0 0 1-8.134496-39.39347 56.91589 56.91589 0 0 1 31.642677-0.869726 159.364493 159.364493 0 0 0 2.225475-7.674053h0.358123l0.946466-5.116035c3.581225-14.171417 7.674053-102.806725 11.204117-117.080463a38.165622 38.165622 0 0 1 4.630012-12.252904c17.343359 23.636082 148.646399 26.322 224.875321-26.526641l-14.248157 38.549324 14.478379 2.839399 16.294572-25.963878-2.046414 18.187505 15.348105 2.046414 9.566985-29.877645c18.878169 10.820414 39.802753 25.298793 58.450701 17.4201 6.215983 14.017936 10.999475 99.404561 14.094677 115.903774l4.016087 21.129225 7.008968-0.434863 3.274263 11.025056a213.057281 213.057281 0 0 1 22.612875-1.304589 128.33574 128.33574 0 0 1-7.827534 38.600484z" /></svg>